# xmcd
#
# Track frame offsets: 
#        150
#        16265
#        30219
#        45195
#        64125
#        76138
#        96891
#        113382
#        122145
#        134645
#        148607
#        171345
#        192048
#        210551
#
# Disc length: 2817 seconds
#
# Revision: 0
# Processed by: cddbd v1.5.2PL0 Copyright (c) Steve Scherf et al.
# Submitted via: ExactAudioCopy v1.3
#
DISCID=af0aff0e
DTITLE=Blue Fuller and The Chicago All Stars - The Meanest Little Girl
DYEAR=1999
DGENRE=Blues
TTITLE0=The Meanest Little Girl
TTITLE1=Wait On Time
TTITLE2=Rollin' and Tumblin'
TTITLE3=Chuck's Blues
TTITLE4=96 Tears
TTITLE5=Rich Woman Blues
TTITLE6=One More Mile
TTITLE7=Betsy's Boogie
TTITLE8=When I Was Young
TTITLE9=Carol
TTITLE10=Wa Wa Blues
TTITLE11=Caledonia
TTITLE12=Past Life
TTITLE13=Hidden Track
EXTD=
EXTT0=
EXTT1=
EXTT2=
EXTT3=
EXTT4=
EXTT5=
EXTT6=
EXTT7=
EXTT8=
EXTT9=
EXTT10=
EXTT11=
EXTT12=
EXTT13=
PLAYORDER=
